<svg xmlns="http://www.w3.org/2000/svg" width="28" height="39.271"><g data-name="Ecard Generator Logo"><path d="M25 5.271h-2V3A3 3 0 0019.097.14L2.774 5.293A2.994 2.994 0 000 8.27v28a3.003 3.003 0 003 3h22a3.003 3.003 0 003-3v-28a3.003 3.003 0 00-3-3zm-5.302-3.225A1 1 0 0121 3v2.271H9.487zM26 36.271a1 1 0 01-1 1H3a1 1 0 01-1-1v-28a1 1 0 01.999-1H25a1 1 0 011 1z"/><path d="M9.358 29.04l.877-5.202-3.788-3.671 5.218-.773 2.321-4.737 2.348 4.723 5.223.744-3.767 3.693.906 5.197-4.676-2.442z" fill="none" stroke="#657af5" stroke-width="2"/></g></svg>